# xmcd CD database file
#
# Track frame offsets:
#	150
#	18937
#	33280
#	52667
#	63360
#	73182
#	85465
#	101060
#	123237
#	147162
#	164867
#	184235
#	201752
#
# Disc length: 2862 seconds
#
# Revision: 1
# Processed by: cddbd v1.5.1PL2 Copyright (c) Steve Scherf et al.
# Submitted via: CDex 1.60beta1
#
DISCID=b70b2c0d
DTITLE=Yiruma - Piano Museum
DYEAR=2004
DGENRE=Piano
TTITLE0=I
TTITLE1=WHEN THE LOVE FALLS
TTITLE2=KISS THE RAIN
TTITLE3=約束…OUR SAME WORD
TTITLE4=LOVE HURTS
TTITLE5=MIKA'S SONG
TTITLE6=SMALL STEPS
TTITLE7=WAIT THERE
TTITLE8=PICTURE ME
TTITLE9=MAY BE
TTITLE10=ALL MYSELF TO YOU
TTITLE11=THE SUNBEAMS...THEY SCATTER
TTITLE12=AS YOU WISH
EXTD=YEAR: 2004
EXTT0=
EXTT1=
EXTT2=
EXTT3=
EXTT4=
EXTT5=
EXTT6=
EXTT7=
EXTT8=
EXTT9=
EXTT10=
EXTT11=
EXTT12=
PLAYORDER=
